<svg xmlns="http://www.w3.org/2000/svg" width="700" height="120" viewBox="0 0 700 120" role="img" aria-label="Contribution activity"><rect width="700" height="120" rx="12" fill="#0d1117" stroke="#30363d"/><rect x="50" y="20" width="8" height="8" rx="2" fill="#1f2328"/><rect x="50" y="32" width="8" height="8" rx="2" fill="#1f2328"/><rect x="50" y="44" width="8" height="8" rx="2" fill="#1f2328"/><rect x="50" y="56" width="8" height="8" rx="2" fill="#1f2328"/><rect x="50" y="68" width="8" height="8" rx="2" fill="#1f2328"/><rect x="50" y="80" width="8" height="8" rx="2" fill="#1f2328"/><rect x="50" y="92" width="8" height="8" rx="2" fill="#1f2328"/><rect x="62" y="20" width="8" height="8" rx="2" fill="#1f2328"/><rect x="62" y="32" width="8" height="8" rx="2" fill="#1f2328"/><rect x="62" y="44" width="8" height="8" rx="2" fill="#1f2328"/><rect x="62" y="56" width="8" height="8" rx="2" fill="#1f2328"/><rect x="62" y="68" width="8" height="8" rx="2" fill="#1f2328"/><rect x="62" y="80" width="8" height="8" rx="2" fill="#1f2328"/><rect x="62" y="92" width="8" height="8" rx="2" fill="#1f2328"/><rect x="74" y="20" width="8" height="8" rx="2" fill="#1f2328"/><rect x="74" y="32" width="8" height="8" rx="2" fill="#1f2328"/><rect x="74" y="44" width="8" height="8" rx="2" fill="#1f2328"/><rect x="74" y="56" width="8" height="8" rx="2" fill="#1f2328"/><rect x="74" y="68" width="8" height="8" rx="2" fill="#1f2328"/><rect x="74" y="80" width="8" height="8" rx="2" fill="#1f2328"/><rect x="74" y="92" width="8" height="8" rx="2" fill="#1f2328"/><rect x="86" y="20" width="8" height="8" rx="2" fill="#1f2328"/><rect x="86" y="32" width="8" height="8" rx="2" fill="#1f2328"/><rect x="86" y="44" width="8" height="8" rx="2" fill="#1f2328"/><rect x="86" y="56" width="8" height="8" rx="2" fill="#1f2328"/><rect x="86" y="68" width="8" height="8" rx="2" fill="#1f2328"/><rect x="86" y="80" width="8" height="8" rx="2" fill="#1f2328"/><rect x="86" y="92" width="8" height="8" rx="2" fill="#1f2328"/><rect x="98" y="20" width="8" height="8" rx="2" fill="#1f2328"/><rect x="98" y="32" width="8" height="8" rx="2" fill="#1f2328"/><rect x="98" y="44" width="8" height="8" rx="2" fill="#1f2328"/><rect x="98" y="56" width="8" height="8" rx="2" fill="#1f2328"/><rect x="98" y="68" width="8" height="8" rx="2" fill="#1f2328"/><rect x="98" y="80" width="8" height="8" rx="2" fill="#1f2328"/><rect x="98" y="92" width="8" height="8" rx="2" fill="#1f2328"/><rect x="110" y="20" width="8" height="8" rx="2" fill="#1f2328"/><rect x="110" y="32" width="8" height="8" rx="2" fill="#1f2328"/><rect x="110" y="44" width="8" height="8" rx="2" fill="#1f2328"/><rect x="110" y="56" width="8" height="8" rx="2" fill="#1f2328"/><rect x="110" y="68" width="8" height="8" rx="2" fill="#1f2328"/><rect x="110" y="80" width="8" height="8" rx="2" fill="#1f2328"/><rect x="110" y="92" width="8" height="8" rx="2" fill="#1f2328"/><rect x="122" y="20" width="8" height="8" rx="2" fill="#1f2328"/><rect x="122" y="32" width="8" height="8" rx="2" fill="#1f2328"/><rect x="122" y="44" width="8" height="8" rx="2" fill="#1f2328"/><rect x="122" y="56" width="8" height="8" rx="2" fill="#1f2328"/><rect x="122" y="68" width="8" height="8" rx="2" fill="#1f2328"/><rect x="122" y="80" width="8" height="8" rx="2" fill="#1f2328"/><rect x="122" y="92" width="8" height="8" rx="2" fill="#1f2328"/><rect x="134" y="20" width="8" height="8" rx="2" fill="#1f2328"/><rect x="134" y="32" width="8" height="8" rx="2" fill="#1f2328"/><rect x="134" y="44" width="8" height="8" rx="2" fill="#1f2328"/><rect x="134" y="56" width="8" height="8" rx="2" fill="#1f2328"/><rect x="134" y="68" width="8" height="8" rx="2" fill="#1f2328"/><rect x="134" y="80" width="8" height="8" rx="2" fill="#1f2328"/><rect x="134" y="92" width="8" height="8" rx="2" fill="#1f2328"/><rect x="146" y="20" width="8" height="8" rx="2" fill="#1f2328"/><rect x="146" y="32" width="8" height="8" rx="2" fill="#1f2328"/><rect x="146" y="44" width="8" height="8" rx="2" fill="#1f2328"/><rect x="146" y="56" width="8" height="8" rx="2" fill="#1f2328"/><rect x="146" y="68" width="8" height="8" rx="2" fill="#1f2328"/><rect x="146" y="80" width="8" height="8" rx="2" fill="#1f2328"/><rect x="146" y="92" width="8" height="8" rx="2" fill="#1f2328"/><rect x="158" y="20" width="8" height="8" rx="2" fill="#1f2328"/><rect x="158" y="32" width="8" height="8" rx="2" fill="#1f2328"/><rect x="158" y="44" width="8" height="8" rx="2" fill="#1f2328"/><rect x="158" y="56" width="8" height="8" rx="2" fill="#1f2328"/><rect x="158" y="68" width="8" height="8" rx="2" fill="#1f2328"/><rect x="158" y="80" width="8" height="8" rx="2" fill="#1f2328"/><rect x="158" y="92" width="8" height="8" rx="2" fill="#1f2328"/><rect x="170" y="20" width="8" height="8" rx="2" fill="#1f2328"/><rect x="170" y="32" width="8" height="8" rx="2" fill="#1f2328"/><rect x="170" y="44" width="8" height="8" rx="2" fill="#1f2328"/><rect x="170" y="56" width="8" height="8" rx="2" fill="#1f2328"/><rect x="170" y="68" width="8" height="8" rx="2" fill="#1f2328"/><rect x="170" y="80" width="8" height="8" rx="2" fill="#1f2328"/><rect x="170" y="92" width="8" height="8" rx="2" fill="#1f2328"/><rect x="182" y="20" width="8" height="8" rx="2" fill="#1f2328"/><rect x="182" y="32" width="8" height="8" rx="2" fill="#1f2328"/><rect x="182" y="44" width="8" height="8" rx="2" fill="#1f2328"/><rect x="182" y="56" width="8" height="8" rx="2" fill="#1f2328"/><rect x="182" y="68" width="8" height="8" rx="2" fill="#1f2328"/><rect x="182" y="80" width="8" height="8" rx="2" fill="#1f2328"/><rect x="182" y="92" width="8" height="8" rx="2" fill="#1f2328"/><rect x="194" y="20" width="8" height="8" rx="2" fill="#1f2328"/><rect x="194" y="32" width="8" height="8" rx="2" fill="#1f2328"/><rect x="194" y="44" width="8" height="8" rx="2" fill="#1f2328"/><rect x="194" y="56" width="8" height="8" rx="2" fill="#1f2328"/><rect x="194" y="68" width="8" height="8" rx="2" fill="#1f2328"/><rect x="194" y="80" width="8" height="8" rx="2" fill="#1f2328"/><rect x="194" y="92" width="8" height="8" rx="2" fill="#1f2328"/><rect x="206" y="20" width="8" height="8" rx="2" fill="#1f2328"/><rect x="206" y="32" width="8" height="8" rx="2" fill="#1f2328"/><rect x="206" y="44" width="8" height="8" rx="2" fill="#1f2328"/><rect x="206" y="56" width="8" height="8" rx="2" fill="#1f2328"/><rect x="206" y="68" width="8" height="8" rx="2" fill="#1f2328"/><rect x="206" y="80" width="8" height="8" rx="2" fill="#1f2328"/><rect x="206" y="92" width="8" height="8" rx="2" fill="#1f2328"/><rect x="218" y="20" width="8" height="8" rx="2" fill="#1f2328"/><rect x="218" y="32" width="8" height="8" rx="2" fill="#1f2328"/><rect x="218" y="44" width="8" height="8" rx="2" fill="#1f2328"/><rect x="218" y="56" width="8" height="8" rx="2" fill="#1f2328"/><rect x="218" y="68" width="8" height="8" rx="2" fill="#1f2328"/><rect x="218" y="80" width="8" height="8" rx="2" fill="#1f2328"/><rect x="218" y="92" width="8" height="8" rx="2" fill="#1f2328"/><rect x="230" y="20" width="8" height="8" rx="2" fill="#1f2328"/><rect x="230" y="32" width="8" height="8" rx="2" fill="#1f2328"/><rect x="230" y="44" width="8" height="8" rx="2" fill="#1f2328"/><rect x="230" y="56" width="8" height="8" rx="2" fill="#1f2328"/><rect x="230" y="68" width="8" height="8" rx="2" fill="#1f2328"/><rect x="230" y="80" width="8" height="8" rx="2" fill="#1f2328"/><rect x="230" y="92" width="8" height="8" rx="2" fill="#1f2328"/><rect x="242" y="20" width="8" height="8" rx="2" fill="#1f2328"/><rect x="242" y="32" width="8" height="8" rx="2" fill="#1f2328"/><rect x="242" y="44" width="8" height="8" rx="2" fill="#1f2328"/><rect x="242" y="56" width="8" height="8" rx="2" fill="#1f2328"/><rect x="242" y="68" width="8" height="8" rx="2" fill="#1f2328"/><rect x="242" y="80" width="8" height="8" rx="2" fill="#1f2328"/><rect x="242" y="92" width="8" height="8" rx="2" fill="#1f2328"/><rect x="254" y="20" width="8" height="8" rx="2" fill="#1f2328"/><rect x="254" y="32" width="8" height="8" rx="2" fill="#1f2328"/><rect x="254" y="44" width="8" height="8" rx="2" fill="#1f2328"/><rect x="254" y="56" width="8" height="8" rx="2" fill="#1f2328"/><rect x="254" y="68" width="8" height="8" rx="2" fill="#1f2328"/><rect x="254" y="80" width="8" height="8" rx="2" fill="#1f2328"/><rect x="254" y="92" width="8" height="8" rx="2" fill="#1f2328"/><rect x="266" y="20" width="8" height="8" rx="2" fill="#1f2328"/><rect x="266" y="32" width="8" height="8" rx="2" fill="#1f2328"/><rect x="266" y="44" width="8" height="8" rx="2" fill="#1f2328"/><rect x="266" y="56" width="8" height="8" rx="2" fill="#1f2328"/><rect x="266" y="68" width="8" height="8" rx="2" fill="#1f2328"/><rect x="266" y="80" width="8" height="8" rx="2" fill="#1f2328"/><rect x="266" y="92" width="8" height="8" rx="2" fill="#1f2328"/><rect x="278" y="20" width="8" height="8" rx="2" fill="#1f2328"/><rect x="278" y="32" width="8" height="8" rx="2" fill="#1f2328"/><rect x="278" y="44" width="8" height="8" rx="2" fill="#1f2328"/><rect x="278" y="56" width="8" height="8" rx="2" fill="#1f2328"/><rect x="278" y="68" width="8" height="8" rx="2" fill="#1f2328"/><rect x="278" y="80" width="8" height="8" rx="2" fill="#1f2328"/><rect x="278" y="92" width="8" height="8" rx="2" fill="#1f2328"/><rect x="290" y="20" width="8" height="8" rx="2" fill="#1f2328"/><rect x="290" y="32" width="8" height="8" rx="2" fill="#1f2328"/><rect x="290" y="44" width="8" height="8" rx="2" fill="#1f2328"/><rect x="290" y="56" width="8" height="8" rx="2" fill="#1f2328"/><rect x="290" y="68" width="8" height="8" rx="2" fill="#1f2328"/><rect x="290" y="80" width="8" height="8" rx="2" fill="#1f2328"/><rect x="290" y="92" width="8" height="8" rx="2" fill="#294f31"/><rect x="302" y="20" width="8" height="8" rx="2" fill="#1f2328"/><rect x="302" y="32" width="8" height="8" rx="2" fill="#1f2328"/><rect x="302" y="44" width="8" height="8" rx="2" fill="#1f2328"/><rect x="302" y="56" width="8" height="8" rx="2" fill="#1f2328"/><rect x="302" y="68" width="8" height="8" rx="2" fill="#1f2328"/><rect x="302" y="80" width="8" height="8" rx="2" fill="#294f31"/><rect x="302" y="92" width="8" height="8" rx="2" fill="#1f2328"/><rect x="314" y="20" width="8" height="8" rx="2" fill="#1f2328"/><rect x="314" y="32" width="8" height="8" rx="2" fill="#1f2328"/><rect x="314" y="44" width="8" height="8" rx="2" fill="#1f2328"/><rect x="314" y="56" width="8" height="8" rx="2" fill="#1f2328"/><rect x="314" y="68" width="8" height="8" rx="2" fill="#1f2328"/><rect x="314" y="80" width="8" height="8" rx="2" fill="#1f2328"/><rect x="314" y="92" width="8" height="8" rx="2" fill="#1f2328"/><rect x="326" y="20" width="8" height="8" rx="2" fill="#1f2328"/><rect x="326" y="32" width="8" height="8" rx="2" fill="#1f2328"/><rect x="326" y="44" width="8" height="8" rx="2" fill="#1f2328"/><rect x="326" y="56" width="8" height="8" rx="2" fill="#1f2328"/><rect x="326" y="68" width="8" height="8" rx="2" fill="#1f2328"/><rect x="326" y="80" width="8" height="8" rx="2" fill="#1f2328"/><rect x="326" y="92" width="8" height="8" rx="2" fill="#1f2328"/><rect x="338" y="20" width="8" height="8" rx="2" fill="#294f31"/><rect x="338" y="32" width="8" height="8" rx="2" fill="#1f2328"/><rect x="338" y="44" width="8" height="8" rx="2" fill="#1f2328"/><rect x="338" y="56" width="8" height="8" rx="2" fill="#1f2328"/><rect x="338" y="68" width="8" height="8" rx="2" fill="#1f2328"/><rect x="338" y="80" width="8" height="8" rx="2" fill="#1f2328"/><rect x="338" y="92" width="8" height="8" rx="2" fill="#1f2328"/><rect x="350" y="20" width="8" height="8" rx="2" fill="#1f2328"/><rect x="350" y="32" width="8" height="8" rx="2" fill="#1f2328"/><rect x="350" y="44" width="8" height="8" rx="2" fill="#1f2328"/><rect x="350" y="56" width="8" height="8" rx="2" fill="#1f2328"/><rect x="350" y="68" width="8" height="8" rx="2" fill="#1f2328"/><rect x="350" y="80" width="8" height="8" rx="2" fill="#1f2328"/><rect x="350" y="92" width="8" height="8" rx="2" fill="#1f2328"/><rect x="362" y="20" width="8" height="8" rx="2" fill="#1f2328"/><rect x="362" y="32" width="8" height="8" rx="2" fill="#1f2328"/><rect x="362" y="44" width="8" height="8" rx="2" fill="#1f2328"/><rect x="362" y="56" width="8" height="8" rx="2" fill="#1f2328"/><rect x="362" y="68" width="8" height="8" rx="2" fill="#1f2328"/><rect x="362" y="80" width="8" height="8" rx="2" fill="#1f2328"/><rect x="362" y="92" width="8" height="8" rx="2" fill="#1f2328"/><rect x="374" y="20" width="8" height="8" rx="2" fill="#1f2328"/><rect x="374" y="32" width="8" height="8" rx="2" fill="#1f2328"/><rect x="374" y="44" width="8" height="8" rx="2" fill="#1f2328"/><rect x="374" y="56" width="8" height="8" rx="2" fill="#1f2328"/><rect x="374" y="68" width="8" height="8" rx="2" fill="#1f2328"/><rect x="374" y="80" width="8" height="8" rx="2" fill="#1f2328"/><rect x="374" y="92" width="8" height="8" rx="2" fill="#1f2328"/><rect x="386" y="20" width="8" height="8" rx="2" fill="#1f2328"/><rect x="386" y="32" width="8" height="8" rx="2" fill="#1f2328"/><rect x="386" y="44" width="8" height="8" rx="2" fill="#1f2328"/><rect x="386" y="56" width="8" height="8" rx="2" fill="#1f2328"/><rect x="386" y="68" width="8" height="8" rx="2" fill="#1f2328"/><rect x="386" y="80" width="8" height="8" rx="2" fill="#1f2328"/><rect x="386" y="92" width="8" height="8" rx="2" fill="#1f2328"/><rect x="398" y="20" width="8" height="8" rx="2" fill="#1f2328"/><rect x="398" y="32" width="8" height="8" rx="2" fill="#1f2328"/><rect x="398" y="44" width="8" height="8" rx="2" fill="#1f2328"/><rect x="398" y="56" width="8" height="8" rx="2" fill="#1f2328"/><rect x="398" y="68" width="8" height="8" rx="2" fill="#1f2328"/><rect x="398" y="80" width="8" height="8" rx="2" fill="#1f2328"/><rect x="398" y="92" width="8" height="8" rx="2" fill="#1f2328"/><rect x="410" y="20" width="8" height="8" rx="2" fill="#1f2328"/><rect x="410" y="32" width="8" height="8" rx="2" fill="#1f2328"/><rect x="410" y="44" width="8" height="8" rx="2" fill="#1f2328"/><rect x="410" y="56" width="8" height="8" rx="2" fill="#1f2328"/><rect x="410" y="68" width="8" height="8" rx="2" fill="#1f2328"/><rect x="410" y="80" width="8" height="8" rx="2" fill="#1f2328"/><rect x="410" y="92" width="8" height="8" rx="2" fill="#1f2328"/><rect x="422" y="20" width="8" height="8" rx="2" fill="#1f2328"/><rect x="422" y="32" width="8" height="8" rx="2" fill="#1f2328"/><rect x="422" y="44" width="8" height="8" rx="2" fill="#1f2328"/><rect x="422" y="56" width="8" height="8" rx="2" fill="#1f2328"/><rect x="422" y="68" width="8" height="8" rx="2" fill="#1f2328"/><rect x="422" y="80" width="8" height="8" rx="2" fill="#1f2328"/><rect x="422" y="92" width="8" height="8" rx="2" fill="#1f2328"/><rect x="434" y="20" width="8" height="8" rx="2" fill="#1f2328"/><rect x="434" y="32" width="8" height="8" rx="2" fill="#1f2328"/><rect x="434" y="44" width="8" height="8" rx="2" fill="#1f2328"/><rect x="434" y="56" width="8" height="8" rx="2" fill="#1f2328"/><rect x="434" y="68" width="8" height="8" rx="2" fill="#1f2328"/><rect x="434" y="80" width="8" height="8" rx="2" fill="#1f2328"/><rect x="434" y="92" width="8" height="8" rx="2" fill="#1f2328"/><rect x="446" y="20" width="8" height="8" rx="2" fill="#1f2328"/><rect x="446" y="32" width="8" height="8" rx="2" fill="#1f2328"/><rect x="446" y="44" width="8" height="8" rx="2" fill="#1f2328"/><rect x="446" y="56" width="8" height="8" rx="2" fill="#1f2328"/><rect x="446" y="68" width="8" height="8" rx="2" fill="#1f2328"/><rect x="446" y="80" width="8" height="8" rx="2" fill="#1f2328"/><rect x="446" y="92" width="8" height="8" rx="2" fill="#1f2328"/><rect x="458" y="20" width="8" height="8" rx="2" fill="#1f2328"/><rect x="458" y="32" width="8" height="8" rx="2" fill="#1f2328"/><rect x="458" y="44" width="8" height="8" rx="2" fill="#1f2328"/><rect x="458" y="56" width="8" height="8" rx="2" fill="#1f2328"/><rect x="458" y="68" width="8" height="8" rx="2" fill="#1f2328"/><rect x="458" y="80" width="8" height="8" rx="2" fill="#1f2328"/><rect x="458" y="92" width="8" height="8" rx="2" fill="#1f2328"/><rect x="470" y="20" width="8" height="8" rx="2" fill="#1f2328"/><rect x="470" y="32" width="8" height="8" rx="2" fill="#294f31"/><rect x="470" y="44" width="8" height="8" rx="2" fill="#1f2328"/><rect x="470" y="56" width="8" height="8" rx="2" fill="#1f2328"/><rect x="470" y="68" width="8" height="8" rx="2" fill="#1f2328"/><rect x="470" y="80" width="8" height="8" rx="2" fill="#1f2328"/><rect x="470" y="92" width="8" height="8" rx="2" fill="#1f2328"/><rect x="482" y="20" width="8" height="8" rx="2" fill="#1f2328"/><rect x="482" y="32" width="8" height="8" rx="2" fill="#1f2328"/><rect x="482" y="44" width="8" height="8" rx="2" fill="#1f2328"/><rect x="482" y="56" width="8" height="8" rx="2" fill="#1f2328"/><rect x="482" y="68" width="8" height="8" rx="2" fill="#1f2328"/><rect x="482" y="80" width="8" height="8" rx="2" fill="#1f2328"/><rect x="482" y="92" width="8" height="8" rx="2" fill="#1f2328"/><rect x="494" y="20" width="8" height="8" rx="2" fill="#1f2328"/><rect x="494" y="32" width="8" height="8" rx="2" fill="#1f2328"/><rect x="494" y="44" width="8" height="8" rx="2" fill="#1f2328"/><rect x="494" y="56" width="8" height="8" rx="2" fill="#1f2328"/><rect x="494" y="68" width="8" height="8" rx="2" fill="#1f2328"/><rect x="494" y="80" width="8" height="8" rx="2" fill="#1f2328"/><rect x="494" y="92" width="8" height="8" rx="2" fill="#1f2328"/><rect x="506" y="20" width="8" height="8" rx="2" fill="#1f2328"/><rect x="506" y="32" width="8" height="8" rx="2" fill="#1f2328"/><rect x="506" y="44" width="8" height="8" rx="2" fill="#1f2328"/><rect x="506" y="56" width="8" height="8" rx="2" fill="#1f2328"/><rect x="506" y="68" width="8" height="8" rx="2" fill="#1f2328"/><rect x="506" y="80" width="8" height="8" rx="2" fill="#294f31"/><rect x="506" y="92" width="8" height="8" rx="2" fill="#5ed661"/><rect x="518" y="20" width="8" height="8" rx="2" fill="#5ed661"/><rect x="518" y="32" width="8" height="8" rx="2" fill="#47a347"/><rect x="518" y="44" width="8" height="8" rx="2" fill="#5ed661"/><rect x="518" y="56" width="8" height="8" rx="2" fill="#5ed661"/><rect x="518" y="68" width="8" height="8" rx="2" fill="#5ed661"/><rect x="518" y="80" width="8" height="8" rx="2" fill="#5ed661"/><rect x="518" y="92" width="8" height="8" rx="2" fill="#5ed661"/><rect x="530" y="20" width="8" height="8" rx="2" fill="#5ed661"/><rect x="530" y="32" width="8" height="8" rx="2" fill="#5ed661"/><rect x="530" y="44" width="8" height="8" rx="2" fill="#5ed661"/><rect x="530" y="56" width="8" height="8" rx="2" fill="#5ed661"/><rect x="530" y="68" width="8" height="8" rx="2" fill="#5ed661"/><rect x="530" y="80" width="8" height="8" rx="2" fill="#5ed661"/><rect x="530" y="92" width="8" height="8" rx="2" fill="#5ed661"/><rect x="542" y="20" width="8" height="8" rx="2" fill="#5ed661"/><rect x="542" y="32" width="8" height="8" rx="2" fill="#47a347"/><rect x="542" y="44" width="8" height="8" rx="2" fill="#5ed661"/><rect x="542" y="56" width="8" height="8" rx="2" fill="#5ed661"/><rect x="542" y="68" width="8" height="8" rx="2" fill="#5ed661"/><rect x="542" y="80" width="8" height="8" rx="2" fill="#5ed661"/><rect x="542" y="92" width="8" height="8" rx="2" fill="#5ed661"/><rect x="554" y="20" width="8" height="8" rx="2" fill="#5ed661"/><rect x="554" y="32" width="8" height="8" rx="2" fill="#5ed661"/><rect x="554" y="44" width="8" height="8" rx="2" fill="#5ed661"/><rect x="554" y="56" width="8" height="8" rx="2" fill="#5ed661"/><rect x="554" y="68" width="8" height="8" rx="2" fill="#5ed661"/><rect x="554" y="80" width="8" height="8" rx="2" fill="#5ed661"/><rect x="554" y="92" width="8" height="8" rx="2" fill="#5ed661"/><rect x="566" y="20" width="8" height="8" rx="2" fill="#5ed661"/><rect x="566" y="32" width="8" height="8" rx="2" fill="#5ed661"/><rect x="566" y="44" width="8" height="8" rx="2" fill="#5ed661"/><rect x="566" y="56" width="8" height="8" rx="2" fill="#5ed661"/><rect x="566" y="68" width="8" height="8" rx="2" fill="#5ed661"/><rect x="566" y="80" width="8" height="8" rx="2" fill="#5ed661"/><rect x="566" y="92" width="8" height="8" rx="2" fill="#5ed661"/><rect x="578" y="20" width="8" height="8" rx="2" fill="#5ed661"/><rect x="578" y="32" width="8" height="8" rx="2" fill="#5ed661"/><rect x="578" y="44" width="8" height="8" rx="2" fill="#5ed661"/><rect x="578" y="56" width="8" height="8" rx="2" fill="#5ed661"/><rect x="578" y="68" width="8" height="8" rx="2" fill="#5ed661"/><rect x="578" y="80" width="8" height="8" rx="2" fill="#5ed661"/><rect x="578" y="92" width="8" height="8" rx="2" fill="#5ed661"/><rect x="590" y="20" width="8" height="8" rx="2" fill="#5ed661"/><rect x="590" y="32" width="8" height="8" rx="2" fill="#5ed661"/><rect x="590" y="44" width="8" height="8" rx="2" fill="#5ed661"/><rect x="590" y="56" width="8" height="8" rx="2" fill="#5ed661"/><rect x="590" y="68" width="8" height="8" rx="2" fill="#5ed661"/><rect x="590" y="80" width="8" height="8" rx="2" fill="#5ed661"/><rect x="590" y="92" width="8" height="8" rx="2" fill="#5ed661"/><rect x="602" y="20" width="8" height="8" rx="2" fill="#5ed661"/><rect x="602" y="32" width="8" height="8" rx="2" fill="#5ed661"/><rect x="602" y="44" width="8" height="8" rx="2" fill="#5ed661"/><rect x="602" y="56" width="8" height="8" rx="2" fill="#5ed661"/><rect x="602" y="68" width="8" height="8" rx="2" fill="#5ed661"/><rect x="602" y="80" width="8" height="8" rx="2" fill="#5ed661"/><rect x="602" y="92" width="8" height="8" rx="2" fill="#294f31"/><rect x="614" y="20" width="8" height="8" rx="2" fill="#5ed661"/><rect x="614" y="32" width="8" height="8" rx="2" fill="#1f2328"/><rect x="614" y="44" width="8" height="8" rx="2" fill="#47a347"/><rect x="614" y="56" width="8" height="8" rx="2" fill="#3c7c4c"/><rect x="614" y="68" width="8" height="8" rx="2" fill="#1f2328"/><rect x="614" y="80" width="8" height="8" rx="2" fill="#1f2328"/><rect x="614" y="92" width="8" height="8" rx="2" fill="#294f31"/><rect x="626" y="20" width="8" height="8" rx="2" fill="#1f2328"/><rect x="626" y="32" width="8" height="8" rx="2" fill="#1f2328"/><rect x="626" y="44" width="8" height="8" rx="2" fill="#1f2328"/><rect x="626" y="56" width="8" height="8" rx="2" fill="#5ed661"/><rect x="626" y="68" width="8" height="8" rx="2" fill="#5ed661"/><rect x="626" y="80" width="8" height="8" rx="2" fill="#5ed661"/><rect x="626" y="92" width="8" height="8" rx="2" fill="#5ed661"/><rect x="638" y="20" width="8" height="8" rx="2" fill="#5ed661"/><rect x="638" y="32" width="8" height="8" rx="2" fill="#3c7c4c"/><rect x="638" y="44" width="8" height="8" rx="2" fill="#5ed661"/><rect x="638" y="56" width="8" height="8" rx="2" fill="#1f2328"/><rect x="638" y="68" width="8" height="8" rx="2" fill="#294f31"/><rect x="638" y="80" width="8" height="8" rx="2" fill="#5ed661"/><rect x="638" y="92" width="8" height="8" rx="2" fill="#5ed661"/><rect x="650" y="20" width="8" height="8" rx="2" fill="#1f2328"/><rect x="650" y="32" width="8" height="8" rx="2" fill="#1f2328"/><rect x="650" y="44" width="8" height="8" rx="2" fill="#1f2328"/><rect x="650" y="56" width="8" height="8" rx="2" fill="#1f2328"/><rect x="650" y="68" width="8" height="8" rx="2" fill="#1f2328"/><rect x="650" y="80" width="8" height="8" rx="2" fill="#1f2328"/><rect x="650" y="92" width="8" height="8" rx="2" fill="#294f31"/><rect x="662" y="20" width="8" height="8" rx="2" fill="#1f2328"/><rect x="662" y="32" width="8" height="8" rx="2" fill="#1f2328"/><rect x="662" y="44" width="8" height="8" rx="2" fill="#1f2328"/><rect x="662" y="56" width="8" height="8" rx="2" fill="#1f2328"/><rect x="662" y="68" width="8" height="8" rx="2" fill="#1f2328"/><rect x="662" y="80" width="8" height="8" rx="2" fill="#294f31"/><rect x="662" y="92" width="8" height="8" rx="2" fill="#5ed661"/><rect x="674" y="20" width="8" height="8" rx="2" fill="#5ed661"/><rect x="674" y="32" width="8" height="8" rx="2" fill="#5ed661"/><rect x="674" y="44" width="8" height="8" rx="2" fill="#294f31"/><rect x="674" y="56" width="8" height="8" rx="2" fill="#1f2328"/><rect x="674" y="68" width="8" height="8" rx="2" fill="#1f2328"/><rect x="674" y="80" width="8" height="8" rx="2" fill="#1f2328"/><rect x="674" y="92" width="8" height="8" rx="2" fill="#3c7c4c"/><text x="684" y="16" text-anchor="end" font-family="-apple-system, BlinkMacSystemFont, 'Segoe UI', Helvetica, Arial, sans-serif" font-size="11" font-weight="700" fill="#8b949e">1k contributions · last year</text><rect x="14" y="106" width="8" height="8" rx="1.5" fill="#1f2328"/><text x="26" y="110" font-family="-apple-system, BlinkMacSystemFont, 'Segoe UI', Helvetica, Arial, sans-serif" font-size="9" fill="#8b949e" dominant-baseline="middle">Less</text><rect x="28" y="106" width="8" height="8" rx="1.5" fill="#294f31"/><rect x="42" y="106" width="8" height="8" rx="1.5" fill="#3c7c4c"/><rect x="56" y="106" width="8" height="8" rx="1.5" fill="#47a347"/><rect x="70" y="106" width="8" height="8" rx="1.5" fill="#5ed661"/><rect x="84" y="106" width="8" height="8" rx="1.5" fill="#5ed661"/><text x="96" y="110" font-family="-apple-system, BlinkMacSystemFont, 'Segoe UI', Helvetica, Arial, sans-serif" font-size="9" fill="#8b949e" dominant-baseline="middle">More</text></svg>